<svg xmlns="http://www.w3.org/2000/svg" xmlns:xlink="http://www.w3.org/1999/xlink" width="500" zoomAndPan="magnify" viewBox="0 0 375 374.999991" height="500" preserveAspectRatio="xMidYMid meet" version="1.0"><defs><g/><clipPath id="be4f496caf"><path d="M 47.105469 115.199219 L 318 115.199219 L 318 276.246094 L 47.105469 276.246094 Z M 47.105469 115.199219 " clip-rule="nonzero"/></clipPath><clipPath id="6e056c73ad"><path d="M 47.105469 148.675781 L 47.105469 276.246094 L 317.648438 276.246094 L 317.648438 115.199219 Z M 47.105469 148.675781 " clip-rule="nonzero"/></clipPath><clipPath id="74e40ba882"><path d="M 47.105469 213.15625 L 79.777344 213.15625 L 79.777344 245.828125 L 47.105469 245.828125 Z M 47.105469 213.15625 " clip-rule="nonzero"/></clipPath><clipPath id="f4e0056b49"><path d="M 63.441406 213.15625 L 68.640625 224.292969 L 79.777344 229.492188 L 68.640625 234.691406 L 63.441406 245.828125 L 58.242188 234.691406 L 47.105469 229.492188 L 58.242188 224.292969 Z M 63.441406 213.15625 " clip-rule="nonzero"/></clipPath><clipPath id="a3cc1f5fbd"><path d="M 74.355469 235.898438 L 94.214844 235.898438 L 94.214844 255.757812 L 74.355469 255.757812 Z M 74.355469 235.898438 " clip-rule="nonzero"/></clipPath><clipPath id="3e9a7ef09b"><path d="M 84.285156 235.898438 L 87.445312 242.667969 L 94.214844 245.828125 L 87.445312 248.988281 L 84.285156 255.757812 L 81.125 248.988281 L 74.355469 245.828125 L 81.125 242.667969 Z M 84.285156 235.898438 " clip-rule="nonzero"/></clipPath><clipPath id="fbbdd1207d"><path d="M 74.355469 200.921875 L 98.824219 200.921875 L 98.824219 225.390625 L 74.355469 225.390625 Z M 74.355469 200.921875 " clip-rule="nonzero"/></clipPath><clipPath id="4dda6eb6e0"><path d="M 86.589844 200.921875 L 90.480469 209.261719 L 98.824219 213.15625 L 90.480469 217.050781 L 86.589844 225.390625 L 82.695312 217.050781 L 74.355469 213.15625 L 82.695312 209.261719 Z M 86.589844 200.921875 " clip-rule="nonzero"/></clipPath></defs><g clip-path="url(#be4f496caf)"><g clip-path="url(#6e056c73ad)"><path fill="#fff5ed" d="M 47.105469 115.199219 L 317.613281 115.199219 L 317.613281 276.246094 L 47.105469 276.246094 Z M 47.105469 115.199219 " fill-opacity="1" fill-rule="nonzero"/></g></g><g clip-path="url(#74e40ba882)"><g clip-path="url(#f4e0056b49)"><path fill="#e53612" d="M 47.105469 213.15625 L 79.777344 213.15625 L 79.777344 245.828125 L 47.105469 245.828125 Z M 47.105469 213.15625 " fill-opacity="1" fill-rule="nonzero"/></g></g><g fill="#e53612" fill-opacity="1"><g transform="translate(14.449222, 198.197757)"><g><path d="M 22.390625 3.84375 C 16.585938 3.84375 11.988281 2.523438 8.59375 -0.109375 C 5.195312 -2.753906 2.78125 -6.242188 1.34375 -10.578125 C -0.0820312 -14.910156 -0.601562 -19.847656 -0.21875 -25.390625 C 0.15625 -30.929688 1.207031 -36.601562 2.9375 -42.40625 C 4.675781 -48.21875 7.015625 -53.910156 9.953125 -59.484375 C 12.890625 -65.066406 16.222656 -70.082031 19.953125 -74.53125 C 23.691406 -78.976562 27.726562 -82.578125 32.0625 -85.328125 C 36.394531 -88.078125 40.820312 -89.566406 45.34375 -89.796875 C 48.8125 -89.941406 51.429688 -89.257812 53.203125 -87.75 C 54.984375 -86.25 56.132812 -84.269531 56.65625 -81.8125 C 57.1875 -79.363281 57.222656 -76.613281 56.765625 -73.5625 C 56.316406 -70.507812 55.640625 -67.492188 54.734375 -64.515625 C 53.828125 -61.535156 52.769531 -58.742188 51.5625 -56.140625 C 50.363281 -53.546875 49.3125 -51.53125 48.40625 -50.09375 C 47.269531 -48.363281 46.0625 -47.195312 44.78125 -46.59375 C 43.5 -45.988281 42.441406 -45.894531 41.609375 -46.3125 C 40.785156 -46.726562 40.296875 -47.648438 40.140625 -49.078125 C 39.992188 -50.515625 40.488281 -52.363281 41.625 -54.625 C 42.445312 -56.28125 43.289062 -57.820312 44.15625 -59.25 C 45.03125 -60.6875 45.820312 -62.117188 46.53125 -63.546875 C 47.25 -64.984375 47.890625 -66.457031 48.453125 -67.96875 C 49.023438 -69.476562 49.460938 -71.175781 49.765625 -73.0625 C 50.210938 -75.925781 50.054688 -77.8125 49.296875 -78.71875 C 48.546875 -79.625 47.566406 -79.960938 46.359375 -79.734375 C 45.160156 -79.503906 43.878906 -78.957031 42.515625 -78.09375 C 41.160156 -77.226562 40.070312 -76.453125 39.25 -75.765625 C 34.945312 -72.378906 30.78125 -68.363281 26.75 -63.71875 C 22.71875 -59.082031 19.191406 -54.125 16.171875 -48.84375 C 13.160156 -43.570312 10.84375 -38.070312 9.21875 -32.34375 C 7.59375 -26.613281 7.082031 -21 7.6875 -15.5 C 8.0625 -11.875 9.039062 -9.082031 10.625 -7.125 C 12.207031 -5.164062 14.128906 -3.847656 16.390625 -3.171875 C 18.660156 -2.492188 21.171875 -2.359375 23.921875 -2.765625 C 26.671875 -3.179688 29.398438 -3.953125 32.109375 -5.078125 C 34.828125 -6.210938 37.429688 -7.609375 39.921875 -9.265625 C 42.410156 -10.929688 44.519531 -12.664062 46.25 -14.46875 C 46.632812 -14.851562 46.957031 -15.234375 47.21875 -15.609375 C 47.476562 -15.984375 47.796875 -16.320312 48.171875 -16.625 C 48.929688 -17.226562 49.816406 -17.53125 50.828125 -17.53125 C 51.847656 -17.53125 52.738281 -17.226562 53.5 -16.625 C 54.394531 -15.875 54.863281 -15.101562 54.90625 -14.3125 C 54.945312 -13.519531 54.773438 -12.726562 54.390625 -11.9375 C 54.015625 -11.144531 53.488281 -10.40625 52.8125 -9.71875 C 52.132812 -9.039062 51.53125 -8.441406 51 -7.921875 C 47.15625 -4.523438 42.726562 -1.71875 37.71875 0.5 C 32.707031 2.726562 27.597656 3.84375 22.390625 3.84375 Z M 22.390625 3.84375 "/></g></g></g><g fill="#e53612" fill-opacity="1"><g transform="translate(75.295761, 198.197757)"><g><path d="M 25.109375 -31.546875 C 23.753906 -28.984375 22.207031 -26.4375 20.46875 -23.90625 C 18.738281 -21.382812 16.929688 -19.03125 15.046875 -16.84375 C 13.535156 -15.113281 11.613281 -13.644531 9.28125 -12.4375 C 6.40625 -10.925781 3.816406 -10.773438 1.515625 -11.984375 C -0.773438 -13.191406 -2.296875 -15.304688 -3.046875 -18.328125 C -3.804688 -21.265625 -3.863281 -24.445312 -3.21875 -27.875 C -2.582031 -31.300781 -1.472656 -34.597656 0.109375 -37.765625 C 1.546875 -40.554688 3.242188 -43.007812 5.203125 -45.125 C 7.160156 -47.238281 9.25 -48.707031 11.46875 -49.53125 C 13.695312 -50.363281 15.976562 -50.382812 18.3125 -49.59375 C 20.65625 -48.800781 22.84375 -46.859375 24.875 -43.765625 C 25.101562 -44.296875 25.367188 -44.898438 25.671875 -45.578125 C 25.972656 -46.253906 26.289062 -46.875 26.625 -47.4375 C 26.96875 -48.007812 27.398438 -48.460938 27.921875 -48.796875 C 28.453125 -49.140625 29.0625 -49.273438 29.75 -49.203125 C 30.726562 -49.046875 31.328125 -48.585938 31.546875 -47.828125 C 31.773438 -47.078125 31.851562 -46.289062 31.78125 -45.46875 C 31.550781 -42.300781 31.285156 -39.207031 30.984375 -36.1875 C 30.679688 -33.175781 30.421875 -30.085938 30.203125 -26.921875 L 30.640625 -25.453125 C 31.328125 -25.367188 32.195312 -25.78125 33.25 -26.6875 C 34.300781 -27.59375 35.429688 -28.648438 36.640625 -29.859375 C 37.847656 -31.066406 39.015625 -32.253906 40.140625 -33.421875 C 41.273438 -34.585938 42.257812 -35.359375 43.09375 -35.734375 C 42.789062 -34.003906 42.222656 -32.253906 41.390625 -30.484375 C 40.554688 -28.710938 39.570312 -27.050781 38.4375 -25.5 C 37.3125 -23.957031 36.125 -22.65625 34.875 -21.59375 C 33.632812 -20.539062 32.445312 -19.863281 31.3125 -19.5625 C 30.1875 -19.257812 29.132812 -19.445312 28.15625 -20.125 C 27.175781 -20.8125 26.460938 -22.171875 26.015625 -24.203125 C 25.710938 -25.410156 25.519531 -26.632812 25.4375 -27.875 C 25.363281 -29.125 25.253906 -30.347656 25.109375 -31.546875 Z M 23.40625 -40.140625 C 20.539062 -41.128906 18.035156 -40.976562 15.890625 -39.6875 C 13.742188 -38.40625 11.972656 -36.554688 10.578125 -34.140625 C 9.179688 -31.734375 8.179688 -29.078125 7.578125 -26.171875 C 6.972656 -23.273438 6.75 -20.734375 6.90625 -18.546875 C 10.820312 -21.265625 14.003906 -24.503906 16.453125 -28.265625 C 18.898438 -32.035156 21.21875 -35.992188 23.40625 -40.140625 Z M 23.40625 -40.140625 "/></g></g></g><g fill="#e53612" fill-opacity="1"><g transform="translate(116.689507, 198.197757)"><g><path d="M 6.328125 -35.390625 C 8.890625 -34.867188 11.394531 -34.457031 13.84375 -34.15625 C 16.300781 -33.851562 18.695312 -33.0625 21.03125 -31.78125 C 21.632812 -31.476562 22.125 -31.382812 22.5 -31.5 C 22.882812 -31.613281 23.375 -31.742188 23.96875 -31.890625 C 24.957031 -32.191406 26.296875 -32.644531 27.984375 -33.25 C 29.679688 -33.851562 31.335938 -34.34375 32.953125 -34.71875 C 34.578125 -35.09375 35.972656 -35.222656 37.140625 -35.109375 C 38.316406 -35.003906 38.90625 -34.421875 38.90625 -33.359375 C 37.394531 -33.128906 36.054688 -32.898438 34.890625 -32.671875 C 33.722656 -32.453125 32.609375 -32.171875 31.546875 -31.828125 C 30.492188 -31.492188 29.421875 -31.0625 28.328125 -30.53125 C 27.234375 -30.007812 26.007812 -29.332031 24.65625 -28.5 C 25.707031 -24.957031 25.910156 -21.921875 25.265625 -19.390625 C 24.628906 -16.867188 23.519531 -14.773438 21.9375 -13.109375 C 20.351562 -11.453125 18.488281 -10.265625 16.34375 -9.546875 C 14.195312 -8.835938 12.179688 -8.519531 10.296875 -8.59375 C 8.410156 -8.664062 6.828125 -9.15625 5.546875 -10.0625 C 4.265625 -10.96875 3.675781 -12.25 3.78125 -13.90625 C 3.894531 -15.570312 4.894531 -17.59375 6.78125 -19.96875 C 8.664062 -22.34375 11.832031 -25.035156 16.28125 -28.046875 C 14.394531 -28.578125 12.507812 -28.894531 10.625 -29 C 8.738281 -29.113281 6.851562 -29.4375 4.96875 -29.96875 C 2.332031 -30.71875 0.5625 -31.753906 -0.34375 -33.078125 C -1.25 -34.398438 -1.550781 -35.851562 -1.25 -37.4375 C -0.945312 -39.019531 -0.15625 -40.675781 1.125 -42.40625 C 2.40625 -44.144531 3.929688 -45.785156 5.703125 -47.328125 C 7.484375 -48.867188 9.367188 -50.207031 11.359375 -51.34375 C 13.359375 -52.476562 15.265625 -53.289062 17.078125 -53.78125 C 18.890625 -54.269531 20.4375 -54.320312 21.71875 -53.9375 C 23 -53.5625 23.828125 -52.582031 24.203125 -51 C 24.429688 -49.875 23.882812 -48.800781 22.5625 -47.78125 C 21.238281 -46.757812 19.578125 -45.679688 17.578125 -44.546875 C 15.585938 -43.421875 13.535156 -42.125 11.421875 -40.65625 C 9.304688 -39.1875 7.609375 -37.429688 6.328125 -35.390625 Z M 19.21875 -26.015625 C 18.164062 -25.253906 17.070312 -24.382812 15.9375 -23.40625 C 14.8125 -22.425781 13.796875 -21.390625 12.890625 -20.296875 C 11.984375 -19.203125 11.226562 -18.109375 10.625 -17.015625 C 10.019531 -15.921875 9.71875 -14.925781 9.71875 -14.03125 C 11.15625 -13.945312 12.570312 -14.265625 13.96875 -14.984375 C 15.363281 -15.703125 16.566406 -16.644531 17.578125 -17.8125 C 18.597656 -18.976562 19.296875 -20.273438 19.671875 -21.703125 C 20.054688 -23.140625 19.90625 -24.578125 19.21875 -26.015625 Z M 19.21875 -26.015625 "/></g></g></g><g fill="#e53612" fill-opacity="1"><g transform="translate(154.464129, 198.197757)"><g><path d="M 5.09375 -58.015625 C 3.207031 -58.015625 1.34375 -57.9375 -0.5 -57.78125 C -2.351562 -57.632812 -4.1875 -57.640625 -6 -57.796875 C -6.75 -57.867188 -7.3125 -58.070312 -7.6875 -58.40625 C -8.0625 -58.75 -8.269531 -59.128906 -8.3125 -59.546875 C -8.351562 -59.960938 -8.179688 -60.359375 -7.796875 -60.734375 C -7.421875 -61.109375 -6.894531 -61.367188 -6.21875 -61.515625 C -4.257812 -61.816406 -2.128906 -62.117188 0.171875 -62.421875 C 2.472656 -62.722656 4.601562 -62.875 6.5625 -62.875 C 7.613281 -66.125 8.6875 -69.3125 9.78125 -72.4375 C 10.875 -75.5625 12.097656 -78.707031 13.453125 -81.875 C 13.984375 -83.082031 14.644531 -83.929688 15.4375 -84.421875 C 16.226562 -84.910156 16.960938 -85.0625 17.640625 -84.875 C 18.316406 -84.6875 18.863281 -84.210938 19.28125 -83.453125 C 19.695312 -82.703125 19.789062 -81.6875 19.5625 -80.40625 C 19.332031 -79.195312 19.085938 -77.875 18.828125 -76.4375 C 18.566406 -75.007812 18.265625 -73.5625 17.921875 -72.09375 C 17.585938 -70.625 17.226562 -69.191406 16.84375 -67.796875 C 16.46875 -66.398438 16.019531 -65.140625 15.5 -64.015625 C 16.476562 -64.015625 17.890625 -64.03125 19.734375 -64.0625 C 21.578125 -64.101562 23.460938 -64.101562 25.390625 -64.0625 C 27.316406 -64.03125 29.085938 -63.9375 30.703125 -63.78125 C 32.328125 -63.632812 33.441406 -63.332031 34.046875 -62.875 C 35.097656 -62.050781 35.472656 -61.394531 35.171875 -60.90625 C 34.867188 -60.414062 34.132812 -60.035156 32.96875 -59.765625 C 31.800781 -59.503906 30.382812 -59.316406 28.71875 -59.203125 C 27.0625 -59.085938 25.441406 -59.03125 23.859375 -59.03125 C 22.273438 -59.03125 20.878906 -59.046875 19.671875 -59.078125 C 18.472656 -59.117188 17.757812 -59.140625 17.53125 -59.140625 C 16.695312 -59.140625 16.070312 -59.117188 15.65625 -59.078125 C 15.25 -59.046875 14.910156 -58.9375 14.640625 -58.75 C 14.378906 -58.5625 14.171875 -58.257812 14.015625 -57.84375 C 13.867188 -57.425781 13.679688 -56.84375 13.453125 -56.09375 C 13.078125 -54.507812 12.585938 -52.640625 11.984375 -50.484375 C 11.378906 -48.335938 10.773438 -46.054688 10.171875 -43.640625 C 9.578125 -41.234375 9.015625 -38.765625 8.484375 -36.234375 C 7.953125 -33.710938 7.554688 -31.242188 7.296875 -28.828125 C 7.035156 -26.421875 6.976562 -24.179688 7.125 -22.109375 C 7.269531 -20.035156 7.6875 -18.242188 8.375 -16.734375 C 9.5 -14.398438 10.816406 -13.15625 12.328125 -13 C 13.835938 -12.851562 15.4375 -13.363281 17.125 -14.53125 C 18.820312 -15.695312 20.5 -17.316406 22.15625 -19.390625 C 23.820312 -21.460938 25.367188 -23.570312 26.796875 -25.71875 C 28.234375 -27.875 29.457031 -29.851562 30.46875 -31.65625 C 31.488281 -33.46875 32.191406 -34.675781 32.578125 -35.28125 L 33.25 -35.171875 C 33.019531 -32.078125 32.1875 -28.925781 30.75 -25.71875 C 29.320312 -22.519531 27.570312 -19.640625 25.5 -17.078125 C 23.425781 -14.515625 21.164062 -12.441406 18.71875 -10.859375 C 16.269531 -9.273438 13.953125 -8.597656 11.765625 -8.828125 C 8.066406 -9.203125 5.21875 -10.5 3.21875 -12.71875 C 1.21875 -14.945312 -0.132812 -17.660156 -0.84375 -20.859375 C -1.5625 -24.066406 -1.804688 -27.570312 -1.578125 -31.375 C -1.359375 -35.1875 -0.867188 -38.84375 -0.109375 -42.34375 C 0.640625 -45.851562 1.503906 -49.019531 2.484375 -51.84375 C 3.460938 -54.675781 4.332031 -56.734375 5.09375 -58.015625 Z M 5.09375 -58.015625 "/></g></g></g><g fill="#e53612" fill-opacity="1"><g transform="translate(186.131473, 198.197757)"><g><path d="M 34.828125 -34.5 C 34.222656 -31.78125 33.164062 -29.175781 31.65625 -26.6875 C 30.15625 -24.195312 28.328125 -22.03125 26.171875 -20.1875 C 24.023438 -18.34375 21.648438 -16.910156 19.046875 -15.890625 C 16.453125 -14.867188 13.796875 -14.507812 11.078125 -14.8125 C 8.890625 -15.039062 6.96875 -15.71875 5.3125 -16.84375 C 3.65625 -17.976562 2.296875 -19.429688 1.234375 -21.203125 C 0.179688 -22.972656 -0.492188 -24.988281 -0.796875 -27.25 C -1.097656 -29.507812 -0.945312 -31.882812 -0.34375 -34.375 C 0.71875 -39.125 2.71875 -43.003906 5.65625 -46.015625 C 8.59375 -49.035156 12.363281 -51.300781 16.96875 -52.8125 C 17.570312 -52.96875 18.226562 -53.0625 18.9375 -53.09375 C 19.65625 -53.132812 20.351562 -53.117188 21.03125 -53.046875 C 23.375 -52.660156 24.941406 -51.597656 25.734375 -49.859375 C 26.523438 -48.128906 26.203125 -46.328125 24.765625 -44.453125 C 24.160156 -43.546875 23.441406 -42.695312 22.609375 -41.90625 C 21.785156 -41.113281 20.957031 -40.414062 20.125 -39.8125 C 18.46875 -38.75 16.828125 -37.785156 15.203125 -36.921875 C 13.585938 -36.054688 11.910156 -35.207031 10.171875 -34.375 C 9.492188 -34.070312 9.023438 -33.734375 8.765625 -33.359375 C 8.503906 -32.984375 8.296875 -32.378906 8.140625 -31.546875 C 7.691406 -28.679688 7.820312 -26.421875 8.53125 -24.765625 C 9.25 -23.109375 10.320312 -21.976562 11.75 -21.375 C 13.1875 -20.769531 14.882812 -20.632812 16.84375 -20.96875 C 18.8125 -21.3125 20.832031 -22.066406 22.90625 -23.234375 C 24.976562 -24.410156 26.992188 -25.9375 28.953125 -27.8125 C 30.910156 -29.695312 32.644531 -31.882812 34.15625 -34.375 C 34.226562 -34.53125 34.335938 -34.550781 34.484375 -34.4375 C 34.640625 -34.320312 34.753906 -34.34375 34.828125 -34.5 Z M 10.296875 -37.4375 C 13.160156 -38.488281 15.476562 -39.75 17.25 -41.21875 C 19.019531 -42.6875 20.128906 -44.289062 20.578125 -46.03125 C 18.617188 -45.726562 16.710938 -44.820312 14.859375 -43.3125 C 13.015625 -41.800781 11.492188 -39.84375 10.296875 -37.4375 Z M 10.296875 -37.4375 "/></g></g></g><g fill="#e53612" fill-opacity="1"><g transform="translate(220.060765, 198.197757)"><g><path d="M 31.546875 -33.8125 C 31.171875 -32.082031 30.304688 -29.914062 28.953125 -27.3125 C 27.597656 -24.707031 25.957031 -22.101562 24.03125 -19.5 C 22.113281 -16.90625 19.984375 -14.492188 17.640625 -12.265625 C 15.304688 -10.046875 12.988281 -8.425781 10.6875 -7.40625 C 8.382812 -6.382812 6.210938 -6.15625 4.171875 -6.71875 C 2.140625 -7.289062 0.410156 -9.082031 -1.015625 -12.09375 C -1.992188 -14.207031 -2.5 -17.054688 -2.53125 -20.640625 C -2.570312 -24.222656 -2.3125 -28.179688 -1.75 -32.515625 C -1.1875 -36.847656 -0.394531 -41.390625 0.625 -46.140625 C 1.644531 -50.890625 2.695312 -55.46875 3.78125 -59.875 C 4.875 -64.289062 5.929688 -68.34375 6.953125 -72.03125 C 7.972656 -75.726562 8.820312 -78.707031 9.5 -80.96875 C 9.644531 -81.5 9.847656 -82.140625 10.109375 -82.890625 C 10.378906 -83.648438 10.722656 -84.382812 11.140625 -85.09375 C 11.554688 -85.8125 12.066406 -86.394531 12.671875 -86.84375 C 13.273438 -87.300781 13.988281 -87.457031 14.8125 -87.3125 C 15.644531 -87.15625 16.285156 -86.832031 16.734375 -86.34375 C 17.191406 -85.851562 17.515625 -85.285156 17.703125 -84.640625 C 17.890625 -84.003906 17.960938 -83.304688 17.921875 -82.546875 C 17.890625 -81.796875 17.832031 -81.160156 17.75 -80.640625 C 17.070312 -75.585938 16.09375 -70.535156 14.8125 -65.484375 C 13.53125 -60.429688 12.226562 -55.378906 10.90625 -50.328125 C 9.59375 -45.273438 8.390625 -40.222656 7.296875 -35.171875 C 6.203125 -30.117188 5.503906 -25.066406 5.203125 -20.015625 C 5.046875 -17.003906 5.269531 -14.894531 5.875 -13.6875 C 6.476562 -12.476562 7.328125 -11.929688 8.421875 -12.046875 C 9.515625 -12.160156 10.816406 -12.800781 12.328125 -13.96875 C 13.835938 -15.132812 15.382812 -16.546875 16.96875 -18.203125 C 18.550781 -19.867188 20.09375 -21.660156 21.59375 -23.578125 C 23.101562 -25.503906 24.460938 -27.257812 25.671875 -28.84375 C 26.878906 -30.425781 27.835938 -31.742188 28.546875 -32.796875 C 29.265625 -33.847656 29.585938 -34.375 29.515625 -34.375 C 29.816406 -34.601562 30.175781 -34.601562 30.59375 -34.375 C 31.007812 -34.15625 31.328125 -33.96875 31.546875 -33.8125 Z M 31.546875 -33.8125 "/></g></g></g><g fill="#e53612" fill-opacity="1"><g transform="translate(249.466174, 198.197757)"><g><path d="M 31.546875 -33.8125 C 31.171875 -32.082031 30.304688 -29.914062 28.953125 -27.3125 C 27.597656 -24.707031 25.957031 -22.101562 24.03125 -19.5 C 22.113281 -16.90625 19.984375 -14.492188 17.640625 -12.265625 C 15.304688 -10.046875 12.988281 -8.425781 10.6875 -7.40625 C 8.382812 -6.382812 6.210938 -6.15625 4.171875 -6.71875 C 2.140625 -7.289062 0.410156 -9.082031 -1.015625 -12.09375 C -1.992188 -14.207031 -2.5 -17.054688 -2.53125 -20.640625 C -2.570312 -24.222656 -2.3125 -28.179688 -1.75 -32.515625 C -1.1875 -36.847656 -0.394531 -41.390625 0.625 -46.140625 C 1.644531 -50.890625 2.695312 -55.46875 3.78125 -59.875 C 4.875 -64.289062 5.929688 -68.34375 6.953125 -72.03125 C 7.972656 -75.726562 8.820312 -78.707031 9.5 -80.96875 C 9.644531 -81.5 9.847656 -82.140625 10.109375 -82.890625 C 10.378906 -83.648438 10.722656 -84.382812 11.140625 -85.09375 C 11.554688 -85.8125 12.066406 -86.394531 12.671875 -86.84375 C 13.273438 -87.300781 13.988281 -87.457031 14.8125 -87.3125 C 15.644531 -87.15625 16.285156 -86.832031 16.734375 -86.34375 C 17.191406 -85.851562 17.515625 -85.285156 17.703125 -84.640625 C 17.890625 -84.003906 17.960938 -83.304688 17.921875 -82.546875 C 17.890625 -81.796875 17.832031 -81.160156 17.75 -80.640625 C 17.070312 -75.585938 16.09375 -70.535156 14.8125 -65.484375 C 13.53125 -60.429688 12.226562 -55.378906 10.90625 -50.328125 C 9.59375 -45.273438 8.390625 -40.222656 7.296875 -35.171875 C 6.203125 -30.117188 5.503906 -25.066406 5.203125 -20.015625 C 5.046875 -17.003906 5.269531 -14.894531 5.875 -13.6875 C 6.476562 -12.476562 7.328125 -11.929688 8.421875 -12.046875 C 9.515625 -12.160156 10.816406 -12.800781 12.328125 -13.96875 C 13.835938 -15.132812 15.382812 -16.546875 16.96875 -18.203125 C 18.550781 -19.867188 20.09375 -21.660156 21.59375 -23.578125 C 23.101562 -25.503906 24.460938 -27.257812 25.671875 -28.84375 C 26.878906 -30.425781 27.835938 -31.742188 28.546875 -32.796875 C 29.265625 -33.847656 29.585938 -34.375 29.515625 -34.375 C 29.816406 -34.601562 30.175781 -34.601562 30.59375 -34.375 C 31.007812 -34.15625 31.328125 -33.96875 31.546875 -33.8125 Z M 31.546875 -33.8125 "/></g></g></g><g fill="#e53612" fill-opacity="1"><g transform="translate(278.871582, 198.197757)"><g><path d="M 25.109375 -31.546875 C 23.753906 -28.984375 22.207031 -26.4375 20.46875 -23.90625 C 18.738281 -21.382812 16.929688 -19.03125 15.046875 -16.84375 C 13.535156 -15.113281 11.613281 -13.644531 9.28125 -12.4375 C 6.40625 -10.925781 3.816406 -10.773438 1.515625 -11.984375 C -0.773438 -13.191406 -2.296875 -15.304688 -3.046875 -18.328125 C -3.804688 -21.265625 -3.863281 -24.445312 -3.21875 -27.875 C -2.582031 -31.300781 -1.472656 -34.597656 0.109375 -37.765625 C 1.546875 -40.554688 3.242188 -43.007812 5.203125 -45.125 C 7.160156 -47.238281 9.25 -48.707031 11.46875 -49.53125 C 13.695312 -50.363281 15.976562 -50.382812 18.3125 -49.59375 C 20.65625 -48.800781 22.84375 -46.859375 24.875 -43.765625 C 25.101562 -44.296875 25.367188 -44.898438 25.671875 -45.578125 C 25.972656 -46.253906 26.289062 -46.875 26.625 -47.4375 C 26.96875 -48.007812 27.398438 -48.460938 27.921875 -48.796875 C 28.453125 -49.140625 29.0625 -49.273438 29.75 -49.203125 C 30.726562 -49.046875 31.328125 -48.585938 31.546875 -47.828125 C 31.773438 -47.078125 31.851562 -46.289062 31.78125 -45.46875 C 31.550781 -42.300781 31.285156 -39.207031 30.984375 -36.1875 C 30.679688 -33.175781 30.421875 -30.085938 30.203125 -26.921875 L 30.640625 -25.453125 C 31.328125 -25.367188 32.195312 -25.78125 33.25 -26.6875 C 34.300781 -27.59375 35.429688 -28.648438 36.640625 -29.859375 C 37.847656 -31.066406 39.015625 -32.253906 40.140625 -33.421875 C 41.273438 -34.585938 42.257812 -35.359375 43.09375 -35.734375 C 42.789062 -34.003906 42.222656 -32.253906 41.390625 -30.484375 C 40.554688 -28.710938 39.570312 -27.050781 38.4375 -25.5 C 37.3125 -23.957031 36.125 -22.65625 34.875 -21.59375 C 33.632812 -20.539062 32.445312 -19.863281 31.3125 -19.5625 C 30.1875 -19.257812 29.132812 -19.445312 28.15625 -20.125 C 27.175781 -20.8125 26.460938 -22.171875 26.015625 -24.203125 C 25.710938 -25.410156 25.519531 -26.632812 25.4375 -27.875 C 25.363281 -29.125 25.253906 -30.347656 25.109375 -31.546875 Z M 23.40625 -40.140625 C 20.539062 -41.128906 18.035156 -40.976562 15.890625 -39.6875 C 13.742188 -38.40625 11.972656 -36.554688 10.578125 -34.140625 C 9.179688 -31.734375 8.179688 -29.078125 7.578125 -26.171875 C 6.972656 -23.273438 6.75 -20.734375 6.90625 -18.546875 C 10.820312 -21.265625 14.003906 -24.503906 16.453125 -28.265625 C 18.898438 -32.035156 21.21875 -35.992188 23.40625 -40.140625 Z M 23.40625 -40.140625 "/></g></g></g><g fill="#e53612" fill-opacity="1"><g transform="translate(320.273421, 198.197757)"><g/></g></g><g fill="#e53612" fill-opacity="1"><g transform="translate(90.55078, 291.19775)"><g><path d="M 20.21875 3.46875 C 14.976562 3.46875 10.828125 2.28125 7.765625 -0.09375 C 4.703125 -2.476562 2.519531 -5.628906 1.21875 -9.546875 C -0.0703125 -13.460938 -0.546875 -17.921875 -0.203125 -22.921875 C 0.140625 -27.921875 1.09375 -33.039062 2.65625 -38.28125 C 4.21875 -43.53125 6.328125 -48.671875 8.984375 -53.703125 C 11.640625 -58.742188 14.648438 -63.269531 18.015625 -67.28125 C 21.390625 -71.300781 25.03125 -74.550781 28.9375 -77.03125 C 32.851562 -79.519531 36.859375 -80.867188 40.953125 -81.078125 C 44.078125 -81.210938 46.4375 -80.597656 48.03125 -79.234375 C 49.632812 -77.867188 50.675781 -76.082031 51.15625 -73.875 C 51.632812 -71.664062 51.664062 -69.179688 51.25 -66.421875 C 50.84375 -63.660156 50.234375 -60.9375 49.421875 -58.25 C 48.609375 -55.5625 47.65625 -53.039062 46.5625 -50.6875 C 45.46875 -48.34375 44.515625 -46.523438 43.703125 -45.234375 C 42.679688 -43.671875 41.59375 -42.613281 40.4375 -42.0625 C 39.28125 -41.519531 38.328125 -41.4375 37.578125 -41.8125 C 36.828125 -42.1875 36.382812 -43.019531 36.25 -44.3125 C 36.113281 -45.601562 36.554688 -47.269531 37.578125 -49.3125 C 38.328125 -50.8125 39.09375 -52.207031 39.875 -53.5 C 40.65625 -54.800781 41.367188 -56.097656 42.015625 -57.390625 C 42.660156 -58.679688 43.238281 -60.003906 43.75 -61.359375 C 44.257812 -62.722656 44.648438 -64.257812 44.921875 -65.96875 C 45.335938 -68.550781 45.203125 -70.25 44.515625 -71.0625 C 43.835938 -71.882812 42.953125 -72.191406 41.859375 -71.984375 C 40.773438 -71.785156 39.617188 -71.289062 38.390625 -70.5 C 37.171875 -69.71875 36.1875 -69.019531 35.4375 -68.40625 C 31.550781 -65.34375 27.785156 -61.71875 24.140625 -57.53125 C 20.503906 -53.351562 17.320312 -48.878906 14.59375 -44.109375 C 11.875 -39.347656 9.78125 -34.378906 8.3125 -29.203125 C 6.851562 -24.023438 6.394531 -18.953125 6.9375 -13.984375 C 7.28125 -10.722656 8.164062 -8.207031 9.59375 -6.4375 C 11.03125 -4.664062 12.769531 -3.472656 14.8125 -2.859375 C 16.851562 -2.242188 19.113281 -2.125 21.59375 -2.5 C 24.082031 -2.875 26.550781 -3.570312 29 -4.59375 C 31.445312 -5.613281 33.796875 -6.875 36.046875 -8.375 C 38.296875 -9.875 40.203125 -11.4375 41.765625 -13.0625 C 42.097656 -13.40625 42.382812 -13.75 42.625 -14.09375 C 42.863281 -14.4375 43.15625 -14.742188 43.5 -15.015625 C 44.175781 -15.554688 44.972656 -15.828125 45.890625 -15.828125 C 46.816406 -15.828125 47.617188 -15.554688 48.296875 -15.015625 C 49.109375 -14.328125 49.53125 -13.625 49.5625 -12.90625 C 49.601562 -12.195312 49.453125 -11.484375 49.109375 -10.765625 C 48.773438 -10.054688 48.300781 -9.394531 47.6875 -8.78125 C 47.070312 -8.164062 46.523438 -7.617188 46.046875 -7.140625 C 42.578125 -4.078125 38.578125 -1.546875 34.046875 0.453125 C 29.523438 2.460938 24.914062 3.46875 20.21875 3.46875 Z M 20.21875 3.46875 "/></g></g></g><g fill="#e53612" fill-opacity="1"><g transform="translate(145.477244, 291.19775)"><g><path d="M 22.46875 -27.15625 C 24.03125 -27.632812 25.523438 -28.179688 26.953125 -28.796875 C 28.378906 -29.410156 29.878906 -29.988281 31.453125 -30.53125 C 32.609375 -30.9375 33.375 -30.898438 33.75 -30.421875 C 34.125 -29.953125 33.765625 -29.34375 32.671875 -28.59375 C 31.035156 -27.4375 29.210938 -26.445312 27.203125 -25.625 C 25.203125 -24.8125 23.210938 -24.234375 21.234375 -23.890625 C 19.535156 -20.078125 17.390625 -17.148438 14.796875 -15.109375 C 12.210938 -13.066406 9.710938 -11.925781 7.296875 -11.6875 C 4.878906 -11.445312 2.800781 -12.128906 1.0625 -13.734375 C -0.664062 -15.335938 -1.53125 -17.875 -1.53125 -21.34375 C -1.53125 -22.976562 -1.304688 -24.628906 -0.859375 -26.296875 C -0.421875 -27.960938 -0.335938 -29.578125 -0.609375 -31.140625 C -1.148438 -34.335938 -0.945312 -37.300781 0 -40.03125 C 0.882812 -42.40625 2.257812 -44.394531 4.125 -46 C 6 -47.601562 8.007812 -48.691406 10.15625 -49.265625 C 12.300781 -49.847656 14.425781 -49.882812 16.53125 -49.375 C 18.644531 -48.863281 20.382812 -47.722656 21.75 -45.953125 C 23.113281 -44.179688 23.945312 -41.742188 24.25 -38.640625 C 24.550781 -35.546875 23.957031 -31.71875 22.46875 -27.15625 Z M 2.140625 -35.328125 C 3.023438 -36.285156 3.859375 -37.222656 4.640625 -38.140625 C 5.421875 -39.054688 6.253906 -39.992188 7.140625 -40.953125 C 8.234375 -42.035156 9.375 -42.660156 10.5625 -42.828125 C 11.757812 -43.003906 12.765625 -42.851562 13.578125 -42.375 C 14.398438 -41.894531 14.925781 -41.195312 15.15625 -40.28125 C 15.394531 -39.363281 15.109375 -38.394531 14.296875 -37.375 C 13.472656 -36.351562 12.753906 -35.484375 12.140625 -34.765625 C 11.535156 -34.054688 10.941406 -33.328125 10.359375 -32.578125 C 9.785156 -31.828125 9.257812 -31.007812 8.78125 -30.125 C 8.300781 -29.238281 7.828125 -28.179688 7.359375 -26.953125 C 10.753906 -25.597656 14.289062 -25.394531 17.96875 -26.34375 L 19.40625 -27.359375 C 20.832031 -29.878906 21.644531 -32.429688 21.84375 -35.015625 C 22.050781 -37.609375 21.507812 -40.195312 20.21875 -42.78125 C 19.0625 -45.09375 17.507812 -46.367188 15.5625 -46.609375 C 13.625 -46.847656 11.6875 -46.472656 9.75 -45.484375 C 7.8125 -44.503906 6.109375 -43.0625 4.640625 -41.15625 C 3.179688 -39.25 2.347656 -37.304688 2.140625 -35.328125 Z M 15.71875 -22.671875 C 14.15625 -22.535156 12.625 -22.484375 11.125 -22.515625 C 9.632812 -22.546875 8.140625 -22.835938 6.640625 -23.390625 C 6.429688 -22.703125 6.363281 -22.050781 6.4375 -21.4375 C 6.632812 -19.664062 7.109375 -18.628906 7.859375 -18.328125 C 8.609375 -18.023438 9.457031 -18.09375 10.40625 -18.53125 C 11.363281 -18.976562 12.335938 -19.640625 13.328125 -20.515625 C 14.316406 -21.398438 15.113281 -22.117188 15.71875 -22.671875 Z M 15.71875 -22.671875 "/></g></g></g><g fill="#e53612" fill-opacity="1"><g transform="translate(177.943078, 291.19775)"><g><path d="M 21.75 -25.421875 C 20.050781 -23.316406 18.347656 -21.242188 16.640625 -19.203125 C 14.941406 -17.160156 12.898438 -15.457031 10.515625 -14.09375 C 9.429688 -13.476562 8.289062 -13.132812 7.09375 -13.0625 C 5.90625 -13 4.78125 -13.171875 3.71875 -13.578125 C 2.664062 -13.984375 1.75 -14.628906 0.96875 -15.515625 C 0.1875 -16.398438 -0.304688 -17.488281 -0.515625 -18.78125 C -0.847656 -20.820312 -0.929688 -22.945312 -0.765625 -25.15625 C -0.597656 -27.375 -0.296875 -29.609375 0.140625 -31.859375 C 0.585938 -34.109375 1.148438 -36.300781 1.828125 -38.4375 C 2.515625 -40.582031 3.195312 -42.609375 3.875 -44.515625 C 4.351562 -46.015625 5.101562 -47.101562 6.125 -47.78125 C 7.144531 -48.46875 8.113281 -48.707031 9.03125 -48.5 C 9.957031 -48.300781 10.675781 -47.65625 11.1875 -46.5625 C 11.695312 -45.46875 11.742188 -43.867188 11.328125 -41.765625 C 10.585938 -38.085938 9.753906 -34.460938 8.828125 -30.890625 C 7.910156 -27.316406 7.453125 -23.65625 7.453125 -19.90625 C 8.609375 -19.769531 9.765625 -20.195312 10.921875 -21.1875 C 12.078125 -22.175781 13.234375 -23.484375 14.390625 -25.109375 C 15.554688 -26.742188 16.679688 -28.566406 17.765625 -30.578125 C 18.859375 -32.585938 19.878906 -34.5625 20.828125 -36.5 C 21.785156 -38.445312 22.671875 -40.203125 23.484375 -41.765625 C 24.296875 -43.328125 25.007812 -44.519531 25.625 -45.34375 C 26.03125 -45.882812 26.59375 -46.238281 27.3125 -46.40625 C 28.03125 -46.570312 28.695312 -46.519531 29.3125 -46.25 C 30.664062 -45.644531 31.140625 -44.59375 30.734375 -43.09375 C 30.597656 -42.6875 30.34375 -41.882812 29.96875 -40.6875 C 29.59375 -39.5 29.203125 -38.117188 28.796875 -36.546875 C 28.390625 -34.984375 27.976562 -33.316406 27.5625 -31.546875 C 27.15625 -29.773438 26.882812 -28.109375 26.75 -26.546875 C 26.476562 -23.617188 26.597656 -21.539062 27.109375 -20.3125 C 27.617188 -19.09375 28.398438 -18.460938 29.453125 -18.421875 C 30.515625 -18.390625 31.722656 -18.816406 33.078125 -19.703125 C 34.441406 -20.585938 35.785156 -21.691406 37.109375 -23.015625 C 38.441406 -24.347656 39.671875 -25.78125 40.796875 -27.3125 C 41.921875 -28.84375 42.753906 -30.222656 43.296875 -31.453125 C 43.640625 -29.742188 43.367188 -27.898438 42.484375 -25.921875 C 41.597656 -23.953125 40.390625 -22.132812 38.859375 -20.46875 C 37.328125 -18.800781 35.625 -17.457031 33.75 -16.4375 C 31.875 -15.414062 30.066406 -14.972656 28.328125 -15.109375 C 26.597656 -15.242188 25.117188 -16.09375 23.890625 -17.65625 C 22.671875 -19.226562 21.957031 -21.816406 21.75 -25.421875 Z M 21.75 -25.421875 "/></g></g></g><g fill="#e53612" fill-opacity="1"><g transform="translate(220.516195, 291.19775)"><g><path d="M 7.859375 -38.296875 C 11.054688 -41.972656 13.539062 -44.164062 15.3125 -44.875 C 17.082031 -45.59375 18.476562 -45.390625 19.5 -44.265625 C 20.519531 -43.140625 21.351562 -41.398438 22 -39.046875 C 22.644531 -36.703125 23.410156 -34.304688 24.296875 -31.859375 C 24.910156 -30.160156 25.675781 -29.140625 26.59375 -28.796875 C 27.519531 -28.453125 28.507812 -28.429688 29.5625 -28.734375 C 30.613281 -29.046875 31.703125 -29.472656 32.828125 -30.015625 C 33.953125 -30.566406 35.054688 -30.910156 36.140625 -31.046875 L 36.046875 -29.921875 C 35.910156 -29.035156 35.378906 -28.269531 34.453125 -27.625 C 33.535156 -26.976562 32.484375 -26.46875 31.296875 -26.09375 C 30.109375 -25.71875 28.898438 -25.476562 27.671875 -25.375 C 26.441406 -25.269531 25.488281 -25.320312 24.8125 -25.53125 C 23.582031 -25.863281 22.539062 -26.59375 21.6875 -27.71875 C 20.84375 -28.84375 20.113281 -30.101562 19.5 -31.5 C 18.882812 -32.894531 18.375 -34.34375 17.96875 -35.84375 C 17.5625 -37.34375 17.15625 -38.632812 16.75 -39.71875 C 13.882812 -36.65625 11.460938 -33.300781 9.484375 -29.65625 C 7.515625 -26.019531 6.15625 -22.160156 5.40625 -18.078125 C 5.269531 -17.253906 5 -15.972656 4.59375 -14.234375 C 4.1875 -12.503906 3.625 -10.835938 2.90625 -9.234375 C 2.195312 -7.640625 1.332031 -6.363281 0.3125 -5.40625 C -0.707031 -4.457031 -1.867188 -4.390625 -3.171875 -5.203125 C -3.773438 -5.546875 -4.226562 -6.023438 -4.53125 -6.640625 C -4.84375 -7.253906 -5 -7.898438 -5 -8.578125 C -5 -9.390625 -4.832031 -10.238281 -4.5 -11.125 C -3.539062 -14.050781 -2.785156 -17.007812 -2.234375 -20 C -1.691406 -23 -1.21875 -25.992188 -0.8125 -28.984375 C -0.40625 -31.984375 -0.0351562 -35 0.296875 -38.03125 C 0.640625 -41.0625 1.085938 -44.078125 1.640625 -47.078125 C 1.703125 -47.679688 1.988281 -48.1875 2.5 -48.59375 C 3.007812 -49.007812 3.570312 -49.234375 4.1875 -49.265625 C 4.800781 -49.296875 5.378906 -49.140625 5.921875 -48.796875 C 6.460938 -48.460938 6.835938 -47.890625 7.046875 -47.078125 C 7.390625 -45.640625 7.578125 -44.1875 7.609375 -42.71875 C 7.640625 -41.257812 7.722656 -39.785156 7.859375 -38.296875 Z M 7.859375 -38.296875 "/></g></g></g><g fill="#e53612" fill-opacity="1"><g transform="translate(255.840648, 291.19775)"><g><path d="M 4.59375 -52.375 C 2.894531 -52.375 1.210938 -52.304688 -0.453125 -52.171875 C -2.128906 -52.035156 -3.78125 -52.035156 -5.40625 -52.171875 C -6.09375 -52.242188 -6.601562 -52.429688 -6.9375 -52.734375 C -7.28125 -53.046875 -7.46875 -53.390625 -7.5 -53.765625 C -7.539062 -54.140625 -7.390625 -54.492188 -7.046875 -54.828125 C -6.703125 -55.171875 -6.222656 -55.410156 -5.609375 -55.546875 C -3.847656 -55.816406 -1.929688 -56.085938 0.140625 -56.359375 C 2.222656 -56.628906 4.148438 -56.765625 5.921875 -56.765625 C 6.878906 -59.691406 7.847656 -62.566406 8.828125 -65.390625 C 9.816406 -68.222656 10.925781 -71.066406 12.15625 -73.921875 C 12.625 -75.015625 13.21875 -75.78125 13.9375 -76.21875 C 14.65625 -76.664062 15.316406 -76.800781 15.921875 -76.625 C 16.535156 -76.457031 17.03125 -76.03125 17.40625 -75.34375 C 17.78125 -74.664062 17.867188 -73.75 17.671875 -72.59375 C 17.460938 -71.507812 17.238281 -70.316406 17 -69.015625 C 16.757812 -67.722656 16.484375 -66.414062 16.171875 -65.09375 C 15.867188 -63.769531 15.546875 -62.476562 15.203125 -61.21875 C 14.867188 -59.957031 14.460938 -58.816406 13.984375 -57.796875 C 14.867188 -57.796875 16.144531 -57.8125 17.8125 -57.84375 C 19.476562 -57.875 21.179688 -57.875 22.921875 -57.84375 C 24.660156 -57.8125 26.257812 -57.726562 27.71875 -57.59375 C 29.1875 -57.457031 30.191406 -57.179688 30.734375 -56.765625 C 31.691406 -56.023438 32.03125 -55.429688 31.75 -54.984375 C 31.476562 -54.546875 30.816406 -54.207031 29.765625 -53.96875 C 28.710938 -53.726562 27.4375 -53.554688 25.9375 -53.453125 C 24.4375 -53.347656 22.972656 -53.296875 21.546875 -53.296875 C 20.117188 -53.296875 18.859375 -53.3125 17.765625 -53.34375 C 16.679688 -53.382812 16.035156 -53.40625 15.828125 -53.40625 C 15.078125 -53.40625 14.515625 -53.382812 14.140625 -53.34375 C 13.765625 -53.3125 13.457031 -53.210938 13.21875 -53.046875 C 12.976562 -52.878906 12.789062 -52.609375 12.65625 -52.234375 C 12.519531 -51.859375 12.351562 -51.328125 12.15625 -50.640625 C 11.8125 -49.210938 11.363281 -47.53125 10.8125 -45.59375 C 10.269531 -43.65625 9.726562 -41.59375 9.1875 -39.40625 C 8.644531 -37.226562 8.132812 -35 7.65625 -32.71875 C 7.175781 -30.445312 6.816406 -28.21875 6.578125 -26.03125 C 6.347656 -23.851562 6.300781 -21.828125 6.4375 -19.953125 C 6.570312 -18.085938 6.945312 -16.472656 7.5625 -15.109375 C 8.582031 -13.003906 9.769531 -11.878906 11.125 -11.734375 C 12.488281 -11.597656 13.9375 -12.054688 15.46875 -13.109375 C 17 -14.171875 18.515625 -15.632812 20.015625 -17.5 C 21.515625 -19.375 22.910156 -21.28125 24.203125 -23.21875 C 25.492188 -25.164062 26.597656 -26.957031 27.515625 -28.59375 C 28.429688 -30.226562 29.0625 -31.316406 29.40625 -31.859375 L 30.015625 -31.75 C 29.816406 -28.957031 29.066406 -26.113281 27.765625 -23.21875 C 26.472656 -20.332031 24.890625 -17.734375 23.015625 -15.421875 C 21.148438 -13.109375 19.109375 -11.234375 16.890625 -9.796875 C 14.679688 -8.367188 12.59375 -7.757812 10.625 -7.96875 C 7.28125 -8.300781 4.707031 -9.472656 2.90625 -11.484375 C 1.101562 -13.492188 -0.117188 -15.941406 -0.765625 -18.828125 C -1.410156 -21.722656 -1.628906 -24.890625 -1.421875 -28.328125 C -1.222656 -31.765625 -0.78125 -35.066406 -0.09375 -38.234375 C 0.582031 -41.398438 1.363281 -44.257812 2.25 -46.8125 C 3.132812 -49.363281 3.914062 -51.21875 4.59375 -52.375 Z M 4.59375 -52.375 "/></g></g></g><g clip-path="url(#a3cc1f5fbd)"><g clip-path="url(#3e9a7ef09b)"><path fill="#e53612" d="M 74.355469 235.898438 L 94.214844 235.898438 L 94.214844 255.757812 L 74.355469 255.757812 Z M 74.355469 235.898438 " fill-opacity="1" fill-rule="nonzero"/></g></g><g clip-path="url(#fbbdd1207d)"><g clip-path="url(#4dda6eb6e0)"><path fill="#e53612" d="M 74.355469 200.921875 L 98.824219 200.921875 L 98.824219 225.390625 L 74.355469 225.390625 Z M 74.355469 200.921875 " fill-opacity="1" fill-rule="nonzero"/></g></g></svg>